<svg xmlns="http://www.w3.org/2000/svg" viewBox="0 0 512 512" role="img" aria-label="Retro TV favicon">
  <metadata>Copyright C.J. Hartmann 2026</metadata>
  <defs>
<!--    <radialGradient id="bg" cx="50%" cy="42%" r="72%"><stop offset="0" stop-color="#44c8ff"/><stop offset="0.6" stop-color="#168ee9"/><stop offset="1" stop-color="#0757b8"/></radialGradient>-->
    <linearGradient id="screen" x1="25%" y1="15%" x2="75%" y2="85%"><stop offset="0" stop-color="#f0ffd2"/><stop offset="0.6" stop-color="#b9d99a"/><stop offset="1" stop-color="#6f9a72"/></linearGradient>
    <linearGradient id="case" x1="24%" y1="16%" x2="86%" y2="91%"><stop offset="0" stop-color="#f29b43"/><stop offset="0.54" stop-color="#d36522"/><stop offset="1" stop-color="#8e371b"/></linearGradient>
  </defs>
<!--  <rect width="512" height="512" rx="92" fill="url(#bg)"/>-->
  <g transform="translate(18 87) rotate(-4 220 190)">
    <path d="M198 35L126-38M238 34L324-44" fill="none" stroke="#2a261f" stroke-width="16" stroke-linecap="round"/>
    <circle cx="122" cy="-42" r="13" fill="#2a261f"/><circle cx="328" cy="-48" r="13" fill="#2a261f"/>
    <rect x="28" y="48" width="420" height="315" rx="54" fill="#3b2a24"/>
    <rect x="48" y="63" width="380" height="278" rx="42" fill="url(#case)"/>
    <rect x="78" y="94" width="260" height="206" rx="38" fill="#34271f"/>
    <rect x="94" y="110" width="228" height="174" rx="30" fill="url(#screen)"/>
    <path d="M112 137c43-17 128-24 187 5" fill="none" stroke="#ffffdf" stroke-width="18" stroke-linecap="round" opacity="0.82"/>
    <g transform="translate(358 104)">
      <circle cx="25" cy="23" r="20" fill="#34271f"/><circle cx="25" cy="23" r="11" fill="#ffd265"/>
      <circle cx="25" cy="78" r="17" fill="#34271f"/><circle cx="25" cy="78" r="9" fill="#aee7ff"/>
      <rect x="7" y="128" width="38" height="13" rx="6" fill="#34271f"/>
      <rect x="7" y="157" width="38" height="13" rx="6" fill="#34271f"/>
    </g>
  </g>
</svg>
